<?xml version="1.0" standalone="no"?>
<!DOCTYPE svg PUBLIC "-//W3C//DTD SVG 1.1//EN" "http://www.w3.org/Graphics/SVG/1.1/DTD/svg11.dtd" >
<svg xmlns="http://www.w3.org/2000/svg">
<metadata>Generated by IcoMoon</metadata>
<defs>
<font id="icomoon" horiz-adv-x="1024">
<font-face units-per-em="1024" ascent="960" descent="-64" />
<missing-glyph horiz-adv-x="1024" />
<glyph unicode="&#x20;" horiz-adv-x="512" d="" />
<glyph unicode="&#xe900;" glyph-name="activity" d="M640 21.333c-17.067 0-34.133 12.8-38.4 29.867l-217.6 644.267-89.6-264.533c-4.267-12.8-17.067-25.6-38.4-25.6h-170.667c-25.6 0-42.667 17.067-42.667 42.667s17.067 42.667 42.667 42.667h140.8l119.467 354.133c4.267 17.067 21.333 29.867 38.4 29.867s34.133-12.8 38.4-29.867l217.6-648.533 89.6 264.533c4.267 17.067 21.333 29.867 38.4 29.867h170.667c25.6 0 42.667-17.067 42.667-42.667s-17.067-42.667-42.667-42.667h-140.8l-119.467-354.133c-4.267-17.067-17.067-29.867-38.4-29.867z" />
<glyph unicode="&#xe901;" glyph-name="alert-circle" d="M516.523-21.333c-260.268 0-469.335 209.067-469.335 469.333s209.067 469.333 469.335 469.333c260.267 0 469.333-209.067 469.333-469.333s-209.067-469.333-469.333-469.333zM516.523 832c-213.335 0-384.002-170.667-384.002-384s170.667-384 384.002-384c213.333 0 384 170.667 384 384s-170.667 384-384 384zM516.523 405.333c-25.6 0-42.667 17.067-42.667 42.667v170.667c0 25.6 17.067 42.667 42.667 42.667s42.667-17.067 42.667-42.667v-170.667c0-25.6-17.067-42.667-42.667-42.667zM516.523 234.667c-25.6 0-42.667 17.067-42.667 42.667s17.067 42.667 42.667 42.667c25.6 0 42.667-17.067 42.667-42.667s-17.067-42.667-42.667-42.667z" />
<glyph unicode="&#xe902;" glyph-name="arrow-left" d="M815.189 405.333h-597.335c-25.6 0-42.667 17.067-42.667 42.667s17.067 42.667 42.667 42.667h597.335c25.6 0 42.667-17.067 42.667-42.667s-17.067-42.667-42.667-42.667zM516.523 106.667c-12.8 0-21.333 4.267-29.867 12.8l-298.668 298.667c-17.067 17.067-17.067 42.667 0 59.733l298.668 298.667c17.067 17.067 42.667 17.067 59.733 0s17.067-42.667 0-59.733l-268.802-268.8 268.802-268.8c17.067-17.067 17.067-42.667 0-59.733-8.533-8.533-17.067-12.8-29.867-12.8z" />
<glyph unicode="&#xe903;" glyph-name="arrow-right" d="M815.189 405.333h-597.335c-25.6 0-42.667 17.067-42.667 42.667s17.067 42.667 42.667 42.667h597.335c25.6 0 42.667-17.067 42.667-42.667s-17.067-42.667-42.667-42.667zM516.523 106.667c-12.8 0-21.333 4.267-29.867 12.8-17.067 17.067-17.067 42.667 0 59.733l268.8 268.8-268.8 268.8c-17.067 17.067-17.067 42.667 0 59.733s42.667 17.067 59.733 0l298.667-298.667c17.067-17.067 17.067-42.667 0-59.733l-298.667-298.667c-8.533-8.533-17.067-12.8-29.867-12.8z" />
<glyph unicode="&#xe904;" glyph-name="att" d="M345.85-21.329c-81.067 0-153.6 29.862-213.333 89.596s-89.6 132.267-89.6 213.333c0 81.067 29.867 153.6 89.6 213.333l392.53 392.535c38.4 38.4 93.867 64 149.333 64s110.933-21.333 149.333-64c38.4-42.667 64-93.867 64-149.333s-21.333-110.933-64-149.333l-392.529-392.535c-46.935-46.933-132.269-46.933-179.202 0-25.6 25.6-38.4 55.471-38.4 89.604s12.8 68.262 38.4 89.596l362.669 362.669c17.067 17.067 42.662 17.067 59.729 0s17.067-42.665 0-59.732l-362.665-362.666c-8.533-8.533-12.8-17.067-12.8-29.867s4.266-21.333 12.8-29.867c17.067-17.067 42.668-17.067 59.734 0l392.535 392.532c25.6 25.6 38.396 55.466 38.396 89.599s-12.796 68.268-38.396 89.602c-46.933 46.933-132.267 46.933-179.2 0l-392.535-392.533c-38.4-38.4-64-93.867-64-149.333s21.333-110.933 64-149.333c42.667-38.4 93.867-64 149.333-64s110.935 21.333 149.335 64l392.533 392.533c17.067 17.066 42.667 17.066 59.733 0s17.067-42.667 0-59.733l-392.533-392.538c-46.933-68.267-123.733-98.129-204.801-98.129z" />
<glyph unicode="&#xe905;" glyph-name="bar" d="M900.523 405.333h-768.002c-25.6 0-42.667 17.067-42.667 42.667s17.067 42.667 42.667 42.667h768.002c25.6 0 42.667-17.067 42.667-42.667s-17.067-42.667-42.667-42.667zM900.523 661.333h-768.002c-25.6 0-42.667 17.067-42.667 42.667s17.067 42.667 42.667 42.667h768.002c25.6 0 42.667-17.067 42.667-42.667s-17.067-42.667-42.667-42.667zM900.523 149.333h-768.002c-25.6 0-42.667 17.067-42.667 42.667s17.067 42.667 42.667 42.667h768.002c25.6 0 42.667-17.067 42.667-42.667s-17.067-42.667-42.667-42.667z" />
<glyph unicode="&#xe906;" glyph-name="bell" d="M516.523-21.333c-21.333 0-42.667 4.267-64 17.067s-34.135 25.6-46.935 46.933c-12.8 21.333-4.267 46.933 17.067 59.733s46.935 4.267 59.735-17.067c4.267-8.533 8.533-12.8 17.067-17.067 12.8-8.533 29.867-8.533 42.667 0 4.267 4.267 12.8 8.533 17.067 17.067 12.8 21.333 38.4 25.6 59.733 17.067 21.333-12.8 25.6-38.4 17.067-59.733-12.8-21.333-25.6-34.133-46.933-46.933-25.6-12.8-51.2-17.067-72.533-17.067zM943.189 192h-853.335c-25.6 0-42.667 17.067-42.667 42.667s17.067 42.667 42.667 42.667c21.333 0 42.667 8.533 59.733 25.6s25.6 38.4 25.6 59.733v213.333c0 89.6 34.133 174.933 98.133 243.2 64 64 149.333 98.133 243.202 98.133 89.6 0 174.933-34.133 243.2-98.133 64-64 98.133-149.333 98.133-243.2v-213.333c0-21.333 8.533-42.667 25.6-59.733s38.4-25.6 59.733-25.6c25.6 0 42.667-17.067 42.667-42.667s-17.067-42.667-42.667-42.667zM239.188 277.333h558.935c-12.8 25.6-21.333 55.467-21.333 85.333v213.333c0 68.267-25.6 132.267-76.8 179.2-46.933 46.933-110.933 76.8-179.2 76.8s-132.268-25.6-179.202-76.8c-46.933-46.933-76.8-110.933-76.8-179.2v-213.333c-4.267-29.867-12.8-59.733-25.6-85.333z" />
<glyph unicode="&#xe907;" glyph-name="book" d="M857.856 917.333h-576.002c-38.4 0-76.8-17.067-106.667-42.667-29.867-29.867-42.667-64-42.667-106.667v-640c0-38.4 17.067-76.8 42.667-106.667 29.867-29.867 64-42.667 106.667-42.667h576.002c25.6 0 42.667 17.067 42.667 42.667v853.333c0 25.6-17.067 42.667-42.667 42.667zM239.188 814.934c12.8 12.8 29.867 17.066 46.933 17.066h533.335v-554.667h-533.335c-21.333 0-42.667-4.267-64-17.067v507.733c-4.267 17.067 4.267 34.134 17.067 46.934zM281.854 64c-17.067 0-34.134 8.533-46.934 17.067-12.8 12.8-17.066 29.867-17.066 46.933s8.533 34.133 17.066 46.933c12.8 12.8 29.867 17.067 46.934 17.067h533.335v-128h-533.335z" />
<glyph unicode="&#xe908;" glyph-name="bookmark" d="M815.189 21.333c-8.533 0-17.067 4.267-25.6 8.533l-273.067 196.267-273.065-196.267c-12.8-8.533-29.867-8.533-42.667-4.267-12.8 8.533-21.333 21.333-21.333 38.4v682.667c0 34.133 12.8 68.267 38.4 89.6 25.6 25.6 55.467 38.4 89.6 38.4h426.669c34.133 0 68.262-12.8 89.596-38.4s38.404-55.467 38.404-89.6v-682.667c0-17.067-8.533-29.867-21.333-38.4-12.8-4.267-17.071-4.267-25.604-4.267zM516.523 320c8.533 0 17.071-4.267 25.604-8.533l230.396-166.4v601.6c0 12.8-4.267 21.333-12.8 29.867s-17.067 12.8-29.867 12.8h-426.665c-12.8 0-21.334-4.267-29.867-12.8s-12.8-17.067-12.8-29.867v-601.6l230.398 166.4c8.533 4.267 17.067 8.533 25.6 8.533z" />
<glyph unicode="&#xe909;" glyph-name="calendar" d="M815.189 832h-85.333v42.667c0 25.6-17.067 42.667-42.667 42.667s-42.667-17.067-42.667-42.667v-42.667h-256.002v42.667c0 25.6-17.067 42.667-42.667 42.667s-42.667-17.067-42.667-42.667v-42.667h-85.333c-72.533 0-128-55.467-128-128v-597.333c0-72.533 55.467-128 128-128h597.335c72.533 0 128 55.467 128 128v597.333c0 72.533-55.467 128-128 128zM217.854 746.667h85.333v-42.667c0-25.6 17.067-42.667 42.667-42.667s42.667 17.067 42.667 42.667v42.667h256.002v-42.667c0-25.6 17.067-42.667 42.667-42.667s42.667 17.067 42.667 42.667v42.667h85.333c25.6 0 42.667-17.067 42.667-42.667v-128h-682.668v128c0 25.6 21.333 42.667 42.667 42.667zM815.189 64h-597.335c-25.6 0-42.667 17.067-42.667 42.667v384h682.668v-384c0-25.6-17.067-42.667-42.667-42.667z" />
<glyph unicode="&#xe90a;" glyph-name="chart" d="M514.931-21.333c-46.933 0-89.598 8.533-136.532 21.333-72.533 21.333-140.8 64-196.267 115.2-55.467 55.467-93.866 119.467-119.466 192-21.333 72.533-25.599 149.333-12.8 226.134s46.933 145.066 93.866 204.8c46.933 59.733 110.934 106.667 179.2 136.534 21.333 8.533 46.933 0 55.466-21.333s0-46.933-21.333-55.466c-55.467-25.6-106.667-64.001-145.067-110.935s-64-106.667-76.8-170.667c-12.8-59.733-8.534-123.733 12.8-183.467 17.067-59.733 51.2-115.2 98.133-157.867 42.667-42.667 98.134-76.8 157.867-93.867 59.732-17.067 123.732-21.333 183.465-8.533s119.471 38.4 166.404 76.8c46.933 38.4 85.329 89.6 110.929 149.333 8.533 21.333 34.133 29.867 55.467 21.333s29.867-34.133 21.333-55.467c-29.867-72.533-76.8-132.267-136.533-179.2s-128-81.067-204.8-98.133c-21.333-4.267-55.467-8.533-85.333-8.533zM941.602 405.333h-426.667c-25.6 0-42.667 17.067-42.667 42.667v426.667c0 25.6 17.067 42.667 42.667 42.667 64 0 123.733-12.8 179.2-34.133s106.667-59.734 153.6-102.401c42.667-42.667 76.8-93.866 102.4-153.599 25.6-55.467 34.133-119.467 34.133-179.2 0-25.6-17.067-42.667-42.667-42.667zM557.602 490.667h337.067c-4.267 34.133-12.8 72.534-25.6 102.401-21.333 46.933-46.933 89.599-85.333 123.732s-76.8 64-123.733 85.333c-34.133 12.8-68.267 21.335-102.4 25.601v-337.068z" />
<glyph unicode="&#xe90b;" glyph-name="check" d="M384 149.333c-12.8 0-21.334 4.267-29.867 12.8l-213.333 213.333c-17.067 17.067-17.067 42.667 0 59.733s42.666 17.067 59.733 0l183.468-183.467 439.466 439.467c17.067 17.067 42.667 17.067 59.733 0s17.067-42.666 0-59.733l-469.334-469.334c-8.533-8.533-17.066-12.8-29.866-12.8z" />
<glyph unicode="&#xe90c;" glyph-name="check-circle" d="M516.51-21.333c-55.467 0-110.935 8.533-162.135 29.867-93.867 34.133-174.934 102.4-230.4 183.467-55.467 85.333-81.066 187.733-72.533 285.867 8.533 102.4 46.933 196.267 110.933 273.067s153.6 132.266 251.733 153.6c98.135 21.333 204.801 12.8 294.401-29.866 21.333-8.534 29.867-34.134 21.333-55.467s-34.133-29.867-55.467-21.333c-76.8 34.133-162.133 42.667-238.933 25.6-81.068-17.067-153.601-64-209.068-123.734-55.467-64-85.333-140.8-89.6-226.133-4.267-81.067 17.067-166.4 59.734-234.667s110.933-123.733 187.733-149.333c76.801-29.867 162.135-29.867 243.201-8.533 76.8 21.333 149.333 72.533 200.533 136.533s76.8 149.333 76.8 230.4v38.4c0 25.6 17.067 42.667 42.667 42.667s42.667-17.067 42.667-42.667v-38.4c0-102.4-34.133-200.533-93.867-281.6s-145.067-140.8-243.2-170.667c-46.933-8.533-89.6-17.067-136.533-17.067zM516.501 320c-12.8 0-21.333 4.267-29.867 12.8l-128.001 128c-17.067 17.067-17.067 42.667 0 59.733s42.667 17.067 59.734 0l98.134-98.133 396.8 396.8c17.067 17.067 42.667 17.067 59.733 0s17.067-42.666 0-59.733l-426.667-426.667c-8.533-8.533-17.067-12.8-29.867-12.8z" />
<glyph unicode="&#xe90d;" glyph-name="check-square" d="M930.389 819.2c-17.067 17.067-42.667 17.067-59.733 0l-396.8-396.8-98.135 98.133c-17.067 17.067-42.667 17.067-59.734 0s-17.067-42.667 0-59.733l128.002-128c8.533-8.533 21.333-12.8 29.867-12.8s21.333 4.267 29.867 12.8l426.667 426.667c17.067 17.067 17.067 42.666 0 59.733zM857.856 490.667c-25.6 0-42.667-17.067-42.667-42.667v-298.667c0-12.8-4.267-21.333-12.8-29.867s-17.067-12.8-29.867-12.8h-597.335c-12.8 0-21.334 4.267-29.868 12.8s-12.799 17.067-12.799 29.867v597.333c0 12.8 4.266 21.333 12.799 29.867s17.068 12.8 29.868 12.8h469.335c25.6 0 42.667 17.067 42.667 42.667s-17.067 42.667-42.667 42.667h-469.335c-34.133 0-68.267-12.8-89.6-38.4-25.6-25.6-38.4-55.467-38.4-89.6v-597.333c0-34.133 12.8-68.267 38.4-89.6 25.6-25.6 55.467-38.4 89.6-38.4h597.335c34.133 0 68.262 12.8 89.596 38.4 25.6 25.6 38.404 55.467 38.404 89.6v298.667c0 25.6-17.067 42.667-42.667 42.667z" />
<glyph unicode="&#xe90e;" glyph-name="chevron-down" d="M512 277.333c-12.8 0-21.333 4.267-29.867 12.8l-256 256c-17.067 17.067-17.067 42.666 0 59.733s42.666 17.067 59.733 0l226.134-226.133 226.133 226.133c17.067 17.067 42.667 17.067 59.733 0s17.067-42.666 0-59.733l-256-256c-8.533-8.533-17.067-12.8-29.867-12.8z" />
<glyph unicode="&#xe90f;" glyph-name="chevron-left" d="M640 149.333c-12.8 0-21.333 4.267-29.867 12.8l-256 256c-17.067 17.067-17.067 42.667 0 59.733l256 256c17.067 17.067 42.667 17.067 59.733 0s17.067-42.666 0-59.733l-226.133-226.134 226.133-226.133c17.067-17.067 17.067-42.667 0-59.733-8.533-8.533-17.067-12.8-29.867-12.8z" />
<glyph unicode="&#xe910;" glyph-name="chevron-right" d="M384 149.333c-12.8 0-21.334 4.267-29.867 12.8-17.067 17.067-17.067 42.667 0 59.733l226.133 226.133-226.133 226.134c-17.067 17.067-17.067 42.666 0 59.733s42.666 17.067 59.733 0l256-256c17.067-17.067 17.067-42.667 0-59.733l-256-256c-8.533-8.533-17.066-12.8-29.866-12.8z" />
<glyph unicode="&#xe911;" glyph-name="chevron-up" d="M768 277.333c-12.8 0-21.333 4.267-29.867 12.8l-226.133 226.133-226.134-226.133c-17.067-17.067-42.666-17.067-59.733 0s-17.067 42.667 0 59.733l256 256c17.067 17.067 42.667 17.067 59.733 0l256-256c17.067-17.067 17.067-42.667 0-59.733-8.533-8.533-17.067-12.8-29.867-12.8z" />
<glyph unicode="&#xe912;" glyph-name="clipboard" d="M772.523-21.333h-512.002c-34.133 0-68.267 12.8-89.6 38.4-25.6 25.6-38.4 55.467-38.4 89.6v597.333c0 34.133 12.8 68.267 38.4 89.6 25.6 25.6 55.467 38.4 89.6 38.4h85.333c25.6 0 42.667-17.067 42.667-42.667s-17.067-42.667-42.667-42.667h-85.333c-12.8 0-21.334-4.266-29.868-12.8s-12.799-17.067-12.799-29.867v-597.333c0-12.8 4.266-21.333 12.799-29.867s17.068-12.8 29.868-12.8h512.002c12.8 0 21.329 4.267 29.862 12.8s12.804 17.067 12.804 29.867v597.333c0 12.8-4.271 21.334-12.804 29.867s-17.062 12.8-29.862 12.8h-85.333c-25.6 0-42.667 17.067-42.667 42.667s17.067 42.667 42.667 42.667h85.333c34.133 0 68.267-12.8 89.6-38.4s38.4-55.467 38.4-89.6v-597.333c0-34.133-12.8-68.267-38.4-89.6s-55.467-38.4-89.6-38.4zM644.523 661.333h-256.002c-46.933 0-85.333 38.4-85.333 85.333v85.333c0 46.933 38.4 85.333 85.333 85.333h256.002c46.933 0 85.333-38.4 85.333-85.333v-85.333c0-46.933-38.4-85.333-85.333-85.333zM388.521 832v-85.333h256.002v85.333h-256.002z" />
<glyph unicode="&#xe913;" glyph-name="clock" d="M516.523-21.333c-260.268 0-469.335 209.067-469.335 469.333s209.067 469.333 469.335 469.333c260.267 0 469.333-209.067 469.333-469.333s-209.067-469.333-469.333-469.333zM516.523 832c-213.335 0-384.002-170.667-384.002-384s170.667-384 384.002-384c213.333 0 384 170.667 384 384s-170.667 384-384 384zM687.189 320c-8.533 0-12.8 0-17.067 4.267l-170.667 85.333c-12.8 8.533-25.6 21.333-25.6 38.4v256c0 25.6 17.067 42.667 42.667 42.667s42.667-17.067 42.667-42.667v-230.4l145.067-72.533c21.333-8.533 29.862-34.133 17.062-55.467-4.267-17.067-17.062-25.6-34.129-25.6z" />
<glyph unicode="&#xe914;" glyph-name="close" d="M516.523-21.333c-260.268 0-469.335 209.067-469.335 469.333s209.067 469.333 469.335 469.333c260.267 0 469.333-209.067 469.333-469.333s-209.067-469.333-469.333-469.333zM516.523 832c-213.335 0-384.002-170.667-384.002-384s170.667-384 384.002-384c213.333 0 384 170.667 384 384s-170.667 384-384 384zM388.521 277.333c-12.8 0-21.334 4.271-29.867 12.804-17.067 17.067-17.067 42.662 0 59.729l256.002 256c17.067 17.067 42.667 17.067 59.733 0s17.067-42.662 0-59.729l-256.001-256c-8.533-8.533-17.067-12.804-29.867-12.804zM644.523 277.333c-12.8 0-21.333 4.271-29.867 12.804l-256.002 256c-17.067 17.067-17.067 42.662 0 59.729s42.667 17.067 59.734 0l256.001-256c17.067-17.067 17.067-42.662 0-59.729-8.533-8.533-17.067-12.804-29.867-12.804z" />
<glyph unicode="&#xe915;" glyph-name="close2" d="M260.521 149.333c-12.8 0-21.334 4.271-29.867 12.804-17.067 17.067-17.067 42.662 0 59.729l512.002 512c17.067 17.067 42.667 17.067 59.733 0s17.067-42.662 0-59.729l-512.002-512c-8.533-8.533-17.066-12.804-29.866-12.804zM772.523 149.333c-12.8 0-21.333 4.271-29.867 12.804l-512.002 512c-17.067 17.067-17.067 42.662 0 59.729s42.666 17.067 59.733 0l512.002-512c17.067-17.067 17.067-42.662 0-59.729-8.533-8.533-17.067-12.804-29.867-12.804z" />
<glyph unicode="&#xe916;" glyph-name="code" d="M687.189 149.333c-12.8 0-21.333 4.267-29.867 12.8-17.067 17.067-17.067 42.667 0 59.733l226.133 226.133-226.133 226.132c-17.067 17.067-17.067 42.668 0 59.734s42.667 17.067 59.733 0l256-256c17.067-17.067 17.067-42.667 0-59.733l-256-256c-8.533-8.533-17.067-12.8-29.867-12.8zM345.855 149.333c-12.8 0-21.334 4.267-29.867 12.8l-256 256c-17.067 17.067-17.067 42.667 0 59.733l256 256c17.067 17.067 42.667 17.067 59.734 0s17.067-42.668 0-59.734l-226.134-226.132 226.134-226.133c17.067-17.067 17.067-42.667 0-59.733-8.533-8.533-17.067-12.8-29.867-12.8z" />
<glyph unicode="&#xe917;" glyph-name="copy" d="M857.856-21.333h-384c-72.535 0-128.002 55.467-128.002 128v384c0 72.533 55.467 128 128.002 128h384c72.533 0 128-55.467 128-128v-384c0-72.533-55.467-128-128-128zM473.856 533.333c-25.6 0-42.667-17.067-42.667-42.667v-384c0-25.6 17.067-42.667 42.667-42.667h384c25.6 0 42.667 17.067 42.667 42.667v384c0 25.6-17.067 42.667-42.667 42.667h-384zM217.854 277.333h-42.667c-34.133 0-68.267 12.8-89.6 38.4-25.6 25.6-38.4 55.467-38.4 89.6v384c0 34.133 12.8 68.267 38.4 89.6 25.6 25.6 55.467 38.4 89.6 38.4h384.002c34.133 0 68.267-12.8 89.6-38.4s38.4-55.467 38.4-89.6v-42.667c0-25.6-17.067-42.667-42.667-42.667s-42.667 17.067-42.667 42.667v42.667c0 12.8-4.271 21.334-12.804 29.867s-17.062 12.8-29.862 12.8h-384.002c-12.8 0-21.334-4.266-29.868-12.8s-12.799-17.067-12.799-29.867v-384c0-12.8 4.266-21.333 12.799-29.867s17.068-12.8 29.868-12.8h42.667c25.6 0 42.667-17.067 42.667-42.667s-17.067-42.667-42.667-42.667z" />
<glyph unicode="&#xe918;" glyph-name="credit-card" d="M864.502 79.36h-737.282c-69.632 0-122.88 53.248-122.88 122.88v491.52c0 69.632 53.248 122.88 122.88 122.88h737.282c69.632 0 122.88-53.248 122.88-122.88v-491.52c0-69.632-53.248-122.88-122.88-122.88zM127.22 734.72c-24.576 0-40.96-16.384-40.96-40.96v-491.52c0-24.576 16.384-40.96 40.96-40.96h737.282c24.576 0 40.96 16.384 40.96 40.96v491.52c0 24.576-16.384 40.96-40.96 40.96h-737.282zM946.422 488.96h-901.122c-24.576 0-40.96 16.384-40.96 40.96s16.384 40.96 40.96 40.96h901.122c24.576 0 40.96-16.384 40.96-40.96s-16.384-40.96-40.96-40.96z" />
<glyph unicode="&#xe919;" glyph-name="download" d="M815.189 21.333h-597.335c-34.133 0-68.267 12.8-89.6 38.4s-38.4 55.467-38.4 89.6v170.667c0 25.6 17.067 42.667 42.667 42.667s42.667-17.067 42.667-42.667v-170.667c0-12.8 4.266-21.333 12.799-29.867s17.068-12.8 29.868-12.8h597.335c12.8 0 21.329 4.267 29.862 12.8s12.804 17.067 12.804 29.867v170.667c0 25.6 17.067 42.667 42.667 42.667s42.667-17.067 42.667-42.667v-170.667c0-34.133-12.8-68.267-38.4-89.6-21.333-25.6-55.467-38.4-89.6-38.4zM516.523 277.333c-12.8 0-21.333 4.267-29.867 12.8l-213.335 213.333c-17.067 17.067-17.067 42.667 0 59.733s42.666 17.067 59.733 0l183.469-183.467 183.467 183.467c17.067 17.067 42.667 17.067 59.733 0s17.067-42.667 0-59.733l-213.333-213.333c-8.533-8.533-17.067-12.8-29.867-12.8zM516.523 277.333c-25.6 0-42.667 17.067-42.667 42.667v512c0 25.6 17.067 42.667 42.667 42.667s42.667-17.067 42.667-42.667v-512c0-25.6-17.067-42.667-42.667-42.667z" />
<glyph unicode="&#xe91a;" glyph-name="download-cloud" d="M517.606 24.789c-12.8 0-21.338 4.267-29.871 12.8l-170.665 170.667c-17.067 17.067-17.067 42.671 0 59.738s42.666 17.067 59.733 0l140.803-140.804 140.796 140.804c17.067 17.067 42.667 17.067 59.733 0s17.067-42.671 0-59.738l-170.667-170.667c-8.533-8.533-17.062-12.8-29.862-12.8zM517.602 24.794c-25.6 0-42.667 17.067-42.667 42.667v384c0 25.6 17.067 42.667 42.667 42.667s42.667-17.067 42.667-42.667v-384c0-25.6-17.067-42.667-42.667-42.667zM897.34 148.523c-12.8 0-25.6 4.267-34.133 17.067-12.8 21.333-8.533 46.938 8.533 59.738 29.867 21.333 51.2 51.2 64 85.333s12.8 72.533 0 106.667c-12.8 34.133-34.133 64-64 85.333s-64 34.132-102.4 34.132h-55.467c-21.333 0-38.4 12.799-42.667 34.132-12.8 42.667-34.133 85.334-59.733 119.468-29.867 34.133-64 64-106.667 81.067s-85.334 25.6-132.268 25.6c-46.933 0-89.6-12.801-128-34.134s-76.801-51.199-102.401-89.599c-25.6-34.133-42.666-76.801-51.199-123.735-8.533-42.668-4.267-89.597 4.267-132.264 12.8-42.667 34.133-85.338 64-119.471 17.067-17.067 12.8-42.662-4.267-59.729s-42.667-12.8-59.733 4.267c-38.4 42.667-68.268 93.867-81.068 149.333-17.067 55.467-17.066 115.2-8.533 170.665 8.533 55.467 34.134 110.932 68.267 157.866s81.067 85.334 128 110.934c51.2 25.6 106.667 42.667 166.4 42.667 55.467 4.267 115.201-8.533 170.668-34.133 51.2-21.333 102.4-59.733 136.533-102.4 29.867-34.133 55.467-76.801 68.267-119.468h21.333c55.467 0 106.667-17.066 149.333-51.199 42.667-34.132 76.8-76.799 93.867-127.999s17.067-106.667 0-157.867c-17.067-51.2-51.2-98.133-93.867-128 0 0-8.533-4.271-17.067-4.271z" />
<glyph unicode="&#xe91b;" glyph-name="edit" d="M810.667 21.333h-597.333c-34.133 0-68.267 12.8-89.6 38.4-25.6 25.6-38.4 55.467-38.4 89.6v597.333c0 34.133 12.8 68.267 38.4 89.6 25.6 25.6 55.467 38.4 89.6 38.4h226.133c25.6 0 42.667-17.067 42.667-42.667s-17.067-42.667-42.667-42.667h-226.133c-12.8 0-21.333-4.266-29.867-12.8s-12.8-17.067-12.8-29.867v-597.333c0-12.8 4.267-21.333 12.8-29.867s17.067-12.8 29.867-12.8h597.333c12.8 0 21.333 4.267 29.867 12.8s12.8 17.067 12.8 29.867v226.133c0 25.6 17.067 42.667 42.667 42.667s42.667-17.067 42.667-42.667v-226.133c0-34.133-12.8-68.267-38.4-89.6-21.333-25.6-55.467-38.4-89.6-38.4zM554.667 277.333h-170.667c-25.6 0-42.667 17.067-42.667 42.667v170.667c0 12.8 4.267 21.333 12.8 29.867l426.667 426.667c17.067 17.067 42.667 17.067 59.733 0l170.667-170.667c17.067-17.067 17.067-42.668 0-59.734l-426.667-426.666c-8.533-8.533-17.067-12.8-29.867-12.8zM426.667 362.667h110.933l384 384-110.933 110.933-384-384v-110.933z" />
<glyph unicode="&#xe91c;" glyph-name="edit-2" d="M345.854 21.333h-213.333c-25.6 0-42.667 17.067-42.667 42.667v213.333c0 12.8 4.266 21.333 12.799 29.867l554.665 554.667c17.067 17.067 42.667 17.067 59.733 0l213.333-213.333c17.067-17.067 17.067-42.668 0-59.734l-554.665-554.666c-8.533-8.533-17.066-12.8-29.866-12.8zM175.188 106.667h153.6l512.002 512-153.6 153.6-512.002-512v-153.6z" />
<glyph unicode="&#xe91d;" glyph-name="edit-3" d="M298.667 192h-170.667c-25.6 0-42.667 17.067-42.667 42.667v170.667c0 12.8 4.267 21.333 12.8 29.867l469.333 469.333c17.067 17.067 42.667 17.067 59.733 0l170.667-170.667c17.067-17.067 17.067-42.668 0-59.734l-469.333-469.332c-8.533-8.533-17.067-12.8-29.867-12.8zM170.667 277.333h110.933l426.667 426.666-110.933 110.933-426.667-426.666v-110.933zM896-21.333h-768c-25.6 0-42.667 17.067-42.667 42.667s17.067 42.667 42.667 42.667h768c25.6 0 42.667-17.067 42.667-42.667s-17.067-42.667-42.667-42.667z" />
<glyph unicode="&#xe91e;" glyph-name="eye" d="M495.858 79.36c-307.201 0-479.234 335.872-487.426 352.256-4.096 12.288-4.096 24.576 0 36.864 8.192 12.288 180.224 352.255 487.426 352.255 307.2 0 479.232-335.871 487.424-352.255 4.096-12.288 4.096-24.576 0-36.864-8.192-16.384-176.128-352.256-487.424-352.256zM94.448 448c36.864-65.536 184.32-286.72 405.505-286.72s364.544 221.184 405.504 286.72c-36.864 65.536-184.32 286.719-405.504 286.719-225.282 0-368.641-221.183-405.505-286.719zM495.862 284.16c-90.114 0-163.842 73.728-163.842 163.84 0 90.111 73.728 163.839 163.842 163.839 90.112 0 163.84-73.728 163.84-163.839s-73.728-163.84-163.84-163.84zM495.862 529.92c-45.056 0-81.92-36.864-81.92-81.92s36.864-81.92 81.92-81.92c45.056 0 81.92 36.864 81.92 81.92s-36.864 81.92-81.92 81.92z" />
<glyph unicode="&#xe91f;" glyph-name="file" d="M772.523-21.333h-512.002c-34.133 0-68.267 12.8-89.6 38.4-25.6 25.6-38.4 55.467-38.4 89.6v682.667c0 34.133 12.8 68.266 38.4 89.599 25.6 25.6 55.467 38.401 89.6 38.401h298.668c12.8 0 21.333-4.266 29.867-12.8l298.667-298.667c8.533-8.533 12.8-17.067 12.8-29.867v-469.333c0-34.133-12.8-68.267-38.4-89.6-21.333-25.6-55.467-38.4-89.6-38.4zM260.521 832c-12.8 0-21.333-4.266-29.867-12.8s-12.8-17.067-12.8-29.867v-682.667c0-12.8 4.267-21.333 12.8-29.867s17.067-12.8 29.867-12.8h512.002c12.8 0 21.333 4.267 29.867 12.8s12.8 17.067 12.8 29.867v452.266l-273.067 273.068h-281.602zM857.856 533.333h-298.667c-25.6 0-42.667 17.067-42.667 42.667v298.667c0 25.6 17.067 42.667 42.667 42.667s42.667-17.067 42.667-42.667v-256h256c25.6 0 42.667-17.067 42.667-42.667s-17.067-42.667-42.667-42.667z" />
<glyph unicode="&#xe920;" glyph-name="file-text" d="M772.523-21.333h-512.002c-34.133 0-68.267 12.8-89.6 38.4-25.6 25.6-38.4 55.467-38.4 89.6v682.667c0 34.133 12.8 68.266 38.4 89.599 25.6 25.6 55.467 38.401 89.6 38.401h341.335c12.8 0 21.333-4.266 29.867-12.8l256-256c8.533-8.533 12.8-17.067 12.8-29.867v-512c0-34.133-12.8-68.267-38.4-89.6-21.333-25.6-55.467-38.4-89.6-38.4zM260.521 832c-12.8 0-21.333-4.266-29.867-12.8s-12.8-17.067-12.8-29.867v-682.667c0-12.8 4.267-21.333 12.8-29.867s17.067-12.8 29.867-12.8h512.002c12.8 0 21.333 4.267 29.867 12.8s12.8 17.067 12.8 29.867v494.932l-230.4 230.401h-324.268zM857.856 576h-256c-25.6 0-42.667 17.067-42.667 42.667v256c0 25.6 17.067 42.667 42.667 42.667s42.667-17.067 42.667-42.667v-213.333h213.333c25.6 0 42.667-17.067 42.667-42.667s-17.067-42.667-42.667-42.667zM687.189 362.667h-341.335c-25.6 0-42.667 17.067-42.667 42.667s17.067 42.667 42.667 42.667h341.335c25.6 0 42.667-17.067 42.667-42.667s-17.067-42.667-42.667-42.667zM687.189 192h-341.335c-25.6 0-42.667 17.067-42.667 42.667s17.067 42.667 42.667 42.667h341.335c25.6 0 42.667-17.067 42.667-42.667s-17.067-42.667-42.667-42.667zM431.189 533.333h-85.335c-25.6 0-42.667 17.067-42.667 42.667s17.067 42.667 42.667 42.667h85.335c25.6 0 42.667-17.067 42.667-42.667s-17.067-42.667-42.667-42.667z" />
<glyph unicode="&#xe921;" glyph-name="filter" d="M599.014 17.067c-8.533 0-12.8 0-17.067 4.267l-170.667 85.333c-12.8 8.533-25.6 21.333-25.6 38.4v264.533l-332.8 392.535c-12.8 12.8-12.8 29.865-4.267 46.932s21.333 25.599 38.4 25.599h853.334c17.067 0 29.867-8.532 38.4-25.599s4.267-34.132-4.267-46.932l-332.8-392.535v-349.867c0-12.8-8.533-29.867-21.333-38.4-4.267-4.267-12.8-4.267-21.333-4.267zM471.014 170.667l85.333-42.667v294.4c0 8.533 4.267 21.333 8.533 25.6l281.6 332.802h-669.867l281.6-332.802c8.533-8.533 8.533-17.067 8.533-25.6v-251.733h4.267z" />
<glyph unicode="&#xe922;" glyph-name="flag" d="M682.667 234.667c-72.533 0-132.267 21.333-187.733 46.933-51.2 21.333-98.133 38.4-153.6 38.4-102.4 0-140.8-29.867-140.8-29.867-12.8-12.8-29.867-12.8-46.934-8.533-17.067 8.533-25.6 21.333-25.6 38.4v512c0 12.8 4.266 21.334 12.8 29.867s64 55.466 200.534 55.466c72.533 0 132.267-21.332 187.733-46.932 51.2-21.333 98.133-38.401 153.6-38.401 102.4 0 140.8 29.867 140.8 29.867 12.8 12.8 29.867 12.8 46.933 8.534 17.067-8.533 25.6-21.334 25.6-38.401v-512c0-12.8-4.267-21.333-12.8-29.867s-59.733-55.467-200.533-55.467zM341.333 405.333c72.533 0 132.267-21.333 187.733-46.933 51.2-21.333 98.133-38.4 153.6-38.4 68.267 0 110.933 12.8 128 21.333v422.401c-29.867-8.533-72.533-17.068-128-17.068-72.533 0-132.267 21.332-187.733 46.932-51.2 21.333-98.133 38.401-153.6 38.401-68.267 0-110.933-12.8-128-21.333v-422.4c29.867 8.533 72.533 17.067 128 17.067zM170.667-21.333c-25.6 0-42.667 17.067-42.667 42.667v298.667c0 25.6 17.067 42.667 42.667 42.667s42.667-17.067 42.667-42.667v-298.667c0-25.6-17.067-42.667-42.667-42.667z" />
<glyph unicode="&#xe923;" glyph-name="Group" d="M810.667 21.333h-597.333c-72.533 0-128 55.467-128 128v597.333c0 72.533 55.467 128 128 128h597.333c72.533 0 128-55.467 128-128v-597.333c0-72.533-55.467-128-128-128zM213.333 789.333c-25.6 0-42.667-17.067-42.667-42.667v-597.333c0-25.6 17.067-42.667 42.667-42.667h597.333c25.6 0 42.667 17.067 42.667 42.667v597.333c0 25.6-17.067 42.667-42.667 42.667h-597.333zM362.667 490.667c-59.733 0-106.667 46.933-106.667 106.667s46.933 106.667 106.667 106.667c59.733 0 106.667-46.933 106.667-106.667s-46.933-106.667-106.667-106.667zM362.667 618.667c-12.8 0-21.333-8.533-21.333-21.333s8.533-21.333 21.333-21.333c12.8 0 21.333 8.533 21.333 21.333s-8.533 21.333-21.333 21.333zM213.334 21.333c-12.8 0-21.334 4.267-29.867 12.8-17.067 17.067-17.067 42.667 0 59.733l469.333 469.333c17.067 17.067 42.667 17.067 59.733 0l213.333-213.333c17.067-17.067 17.067-42.667 0-59.733s-42.667-17.067-59.733 0l-183.467 183.467-439.466-439.467c-8.533-8.533-17.067-12.8-29.867-12.8z" />
<glyph unicode="&#xe924;" glyph-name="heart" d="M486.4 11.733c-12.8 0-21.333 4.267-29.867 12.8l-375.467 375.467c-51.2 51.2-81.067 123.733-81.067 196.267s29.867 145.066 81.067 196.266c51.2 51.2 123.733 81.068 196.267 81.068s145.067-29.868 196.267-81.068l17.067-17.065 17.067 17.065c25.6 25.6 55.467 46.934 89.6 59.734 68.267 29.867 145.067 29.867 213.333 0 34.133-12.8 64-34.134 89.6-59.734s46.933-55.466 59.733-89.599c12.8-34.133 21.333-68.267 21.333-106.667s-8.533-72.533-21.333-106.667c-12.8-34.133-34.133-64-59.733-89.6l-375.467-375.467c-17.067-8.533-25.6-12.8-38.4-12.8zM277.333 788.267c-51.2 0-98.133-21.333-136.533-55.466s-55.467-85.334-55.467-136.534c0-51.2 21.333-98.133 55.467-136.533l345.6-345.6 345.6 345.6c17.067 17.067 29.867 38.4 42.667 64 8.533 21.333 12.8 46.933 12.8 72.533s-4.267 51.2-12.8 72.534c-8.533 21.333-25.6 42.667-42.667 64-17.067 17.067-38.4 29.867-64 42.667-46.933 21.333-98.133 21.333-145.067 0-21.333-8.533-42.667-25.6-64-42.667l-46.933-46.935c-17.067-17.067-42.667-17.067-59.733 0l-46.933 46.935c-29.867 34.133-76.8 55.466-128 55.466z" />
<glyph unicode="&#xe925;" glyph-name="help-circle" d="M516.523-21.333c-260.268 0-469.335 209.067-469.335 469.333s209.067 469.333 469.335 469.333c260.267 0 469.333-209.067 469.333-469.333s-209.067-469.333-469.333-469.333zM516.523 832c-213.335 0-384.002-170.667-384.002-384s170.667-384 384.002-384c213.333 0 384 170.667 384 384s-170.667 384-384 384zM512.26 362.667c-17.067 0-34.133 12.8-38.4 29.867-8.533 21.333 4.267 46.933 25.6 55.467 25.6 8.533 98.133 42.667 98.133 89.6 0 21.333-8.533 38.402-21.333 55.468s-29.867 25.598-51.2 29.865c-21.333 4.267-38.4 0.002-59.733-8.532-17.067-8.533-29.867-25.601-38.4-46.935s-34.133-34.132-55.467-25.599c-21.333 8.533-34.133 34.133-25.6 55.466 12.8 38.4 38.4 68.266 72.534 89.599s76.8 29.867 115.2 21.333c38.4-8.533 76.8-25.599 102.4-59.732 25.6-29.867 38.4-68.268 38.4-110.935 0-110.933-140.8-162.133-157.867-166.4 8.533-8.533 4.267-8.533-4.267-8.533zM516.523 192c-25.6 0-42.667 17.067-42.667 42.667s17.067 42.667 42.667 42.667c25.6 0 42.667-17.067 42.667-42.667s-17.067-42.667-42.667-42.667z" />
<glyph unicode="&#xe926;" glyph-name="inbox" d="M601.856 277.333h-170.667c-12.802 0-25.603 8.533-34.136 17.067l-72.532 110.933h-234.667c-25.6 0-42.667 17.067-42.667 42.667s17.067 42.667 42.667 42.667h256c12.8 0 25.6-8.533 34.132-17.067l72.536-110.933h123.733l72.533 110.933c8.533 12.8 21.333 17.067 34.133 17.067h256c25.6 0 42.667-17.067 42.667-42.667s-17.067-42.667-42.667-42.667h-234.667l-72.538-110.933c0-8.533-12.796-17.067-29.862-17.067zM857.856 64h-682.668c-34.133 0-68.267 12.8-89.6 38.4s-38.4 55.467-38.4 89.6v256c0 8.533 0 12.8 4.267 17.067l145.067 294.4c8.533 21.333 25.6 38.4 46.933 51.2s42.666 21.333 68.266 21.333h405.332c25.6 0 46.933-8.533 68.267-21.333s38.404-29.867 46.938-51.2l149.333-294.4c4.267-4.267 4.267-12.8 4.267-17.067v-256c0-34.133-12.8-68.267-38.4-89.6-21.333-25.6-55.467-38.4-89.6-38.4zM132.521 439.467v-247.467c0-12.8 4.266-21.333 12.799-29.867s17.068-12.8 29.868-12.8h682.668c12.8 0 21.329 4.267 29.862 12.8s12.804 17.067 12.804 29.867v247.467l-140.804 285.867c-4.267 8.533-8.533 12.801-17.067 17.068s-12.8 4.266-21.333 4.266h-405.332c-8.533 0-17.067-4.266-21.333-4.266s-12.8-8.534-17.066-17.068l-145.066-285.867z" />
<glyph unicode="&#xe927;" glyph-name="info" d="M512-21.333c-260.267 0-469.333 209.067-469.333 469.333s209.067 469.333 469.333 469.333c260.267 0 469.333-209.067 469.333-469.333s-209.067-469.333-469.333-469.333zM512 832c-213.333 0-384-170.667-384-384s170.667-384 384-384c213.333 0 384 170.667 384 384s-170.667 384-384 384zM512 234.667c-25.6 0-42.667 17.067-42.667 42.667v170.667c0 25.6 17.067 42.667 42.667 42.667s42.667-17.067 42.667-42.667v-170.667c0-25.6-17.067-42.667-42.667-42.667zM512 576c-25.6 0-42.667 17.067-42.667 42.667s17.067 42.667 42.667 42.667c25.6 0 42.667-17.067 42.667-42.667s-17.067-42.667-42.667-42.667z" />
<glyph unicode="&#xe928;" glyph-name="lock" d="M815.189-21.333h-597.335c-72.533 0-128 55.467-128 128v298.667c0 72.533 55.467 128 128 128h597.335c72.533 0 128-55.467 128-128v-298.667c0-72.533-55.467-128-128-128zM217.854 448c-25.6 0-42.667-17.067-42.667-42.667v-298.667c0-25.6 17.067-42.667 42.667-42.667h597.335c25.6 0 42.667 17.067 42.667 42.667v298.667c0 25.6-17.067 42.667-42.667 42.667h-597.335zM729.856 448c-25.6 0-42.667 17.067-42.667 42.667v170.667c0 46.933-17.071 89.6-51.204 119.466-34.133 34.133-76.796 51.2-119.462 51.2-46.933 0-89.604-17.067-119.469-51.2-34.133-34.133-51.199-76.8-51.199-119.466v-170.667c0-25.6-17.067-42.667-42.667-42.667s-42.667 17.067-42.667 42.667v170.667c0 68.267 25.599 132.267 76.799 179.2 46.933 46.933 115.203 76.8 179.203 76.8 68.267 0 132.262-25.6 179.196-76.8 46.933-46.933 76.804-110.934 76.804-179.2v-170.667c0-25.6-17.067-42.667-42.667-42.667z" />
<glyph unicode="&#xe929;" glyph-name="log-out" d="M815.189 21.333h-170.667c-25.6 0-42.667 17.067-42.667 42.667s17.067 42.667 42.667 42.667h170.667c12.8 0 21.329 4.267 29.862 12.8s12.804 17.067 12.804 29.867v597.333c0 12.8-4.271 21.334-12.804 29.867s-17.062 12.8-29.862 12.8h-170.667c-25.6 0-42.667 17.067-42.667 42.667s17.067 42.667 42.667 42.667h170.667c34.133 0 68.267-12.801 89.6-38.401 25.6-25.6 38.4-55.466 38.4-89.599v-597.333c0-34.133-12.8-68.267-38.4-89.6-21.333-25.6-55.467-38.4-89.6-38.4zM431.189 192c-12.801 0-21.335 4.267-29.868 12.8-17.067 17.067-17.067 42.667 0 59.733l183.468 183.467-183.468 183.466c-17.067 17.067-17.067 42.668 0 59.734s42.668 17.067 59.735 0l213.333-213.333c17.067-17.067 17.067-42.667 0-59.733l-213.333-213.333c-8.533-8.533-17.067-12.8-29.867-12.8zM644.523 405.333h-512.002c-25.6 0-42.667 17.067-42.667 42.667s17.067 42.667 42.667 42.667h512.002c25.6 0 42.667-17.067 42.667-42.667s-17.067-42.667-42.667-42.667z" />
<glyph unicode="&#xe92a;" glyph-name="log-out1" d="M388.521 21.333h-170.667c-34.133 0-68.267 12.8-89.6 38.4s-38.4 55.467-38.4 89.6v597.333c0 34.133 12.8 68.266 38.4 89.599s55.467 38.401 89.6 38.401h170.667c25.6 0 42.668-17.067 42.668-42.667s-17.068-42.667-42.668-42.667h-170.667c-12.8 0-21.334-4.266-29.868-12.8s-12.799-17.067-12.799-29.867v-597.333c0-12.8 4.266-21.333 12.799-29.867s17.068-12.8 29.868-12.8h170.667c25.6 0 42.668-17.067 42.668-42.667s-17.068-42.667-42.668-42.667zM687.189 192c-12.8 0-21.333 4.267-29.867 12.8-17.067 17.067-17.067 42.667 0 59.733l183.467 183.467-183.467 183.466c-17.067 17.067-17.067 42.668 0 59.734s42.667 17.067 59.733 0l213.333-213.333c17.067-17.067 17.067-42.667 0-59.733l-213.333-213.333c-8.533-8.533-17.067-12.8-29.867-12.8zM900.523 405.333h-512.002c-25.6 0-42.667 17.067-42.667 42.667s17.067 42.667 42.667 42.667h512.002c25.6 0 42.667-17.067 42.667-42.667s-17.067-42.667-42.667-42.667z" />
<glyph unicode="&#xe92b;" glyph-name="mail" d="M855.334 64h-682.668c-72.534 0-128 55.467-128 128v512c0 72.533 55.466 128 128 128h682.668c72.533 0 128-55.467 128-128v-512c0-72.533-55.467-128-128-128zM172.667 746.667c-25.6 0-42.667-17.067-42.667-42.667v-512c0-25.6 17.067-42.667 42.667-42.667h682.668c25.6 0 42.667 17.067 42.667 42.667v512c0 25.6-17.067 42.667-42.667 42.667h-682.668zM513.997 362.667c-8.533 0-17.067 4.267-25.6 8.533l-426.666 298.668c-21.333 12.8-25.6 38.398-8.533 59.732 12.8 21.333 38.4 25.6 59.733 8.534l401.066-281.6 401.067 281.6c21.333 12.8 46.933 8.533 59.733-8.534 12.8-21.333 8.533-46.932-8.533-59.732l-426.667-298.668c-8.533-4.267-17.067-8.533-25.6-8.533z" />
<glyph unicode="&#xe92c;" glyph-name="message-circle" d="M132.506 21.333c-12.8 0-21.334 4.267-29.867 12.8-12.8 12.8-17.066 29.867-8.532 42.667l76.8 226.133c-21.333 51.2-34.133 106.667-34.133 166.4 0 76.8 21.333 149.333 59.733 213.333s98.133 115.2 162.133 149.333c55.467 29.867 119.467 42.667 179.2 42.667h21.333c102.4-4.267 196.267-46.933 264.533-119.466 72.533-72.533 110.933-162.134 119.467-264.534v-25.6c0-64-12.8-123.733-42.667-183.467-34.133-68.267-85.333-123.733-149.333-162.133s-136.533-59.733-213.333-59.733c-59.733 0-115.199 12.8-166.399 34.133l-226.134-76.8c-4.267 4.267-8.533 4.267-12.8 4.267zM537.839 789.333c-51.2 0-98.133-12.8-140.8-34.133-55.467-25.6-98.133-68.266-128-119.466s-46.932-106.668-46.932-166.401c0-51.2 12.8-98.133 34.133-140.8 4.267-8.533 4.267-21.333 4.267-34.133l-55.467-162.133 162.134 55.467c12.8 4.267 21.333 4.267 34.133-4.267 42.667-21.333 93.867-34.133 140.8-34.133 59.733 0 119.467 17.067 166.4 46.933 51.2 29.867 89.6 76.8 119.467 128 21.333 42.667 34.133 93.867 34.133 145.067v21.333c-4.267 76.8-38.4 149.333-93.867 204.8s-128 89.6-209.067 93.867h-21.333z" />
<glyph unicode="&#xe92d;" glyph-name="message-square" d="M132.521 21.333c-4.267 0-12.8 0-17.067 4.267-17.067 8.533-25.6 21.333-25.6 38.4v682.667c0 34.133 12.8 68.266 38.4 89.599s55.467 38.401 89.6 38.401h597.335c34.133 0 68.267-12.801 89.6-38.401 25.6-25.6 38.4-55.466 38.4-89.599v-426.667c0-34.133-12.8-68.267-38.4-89.6-25.6-25.6-55.467-38.4-89.6-38.4h-494.935l-157.867-157.867c-8.533-8.533-17.066-12.8-29.866-12.8zM217.854 789.333c-12.8 0-21.334-4.266-29.868-12.8s-12.799-17.067-12.799-29.867v-580.267l98.132 98.133c8.533 8.533 17.068 12.8 29.868 12.8h512.002c12.8 0 21.329 4.267 29.862 12.8s12.804 17.067 12.804 29.867v426.667c0 12.8-4.271 21.334-12.804 29.867s-17.062 12.8-29.862 12.8h-597.335z" />
<glyph unicode="&#xe92e;" glyph-name="more-horizontal" d="M516.523 362.667c-46.933 0-85.333 38.4-85.333 85.333s38.4 85.333 85.333 85.333c46.933 0 85.333-38.4 85.333-85.333s-38.4-85.333-85.333-85.333zM516.523 448v0zM815.189 362.667c-46.933 0-85.333 38.4-85.333 85.333s38.4 85.333 85.333 85.333c46.933 0 85.333-38.4 85.333-85.333s-38.4-85.333-85.333-85.333zM815.189 448v0zM217.854 362.667c-46.933 0-85.333 38.4-85.333 85.333s38.4 85.333 85.333 85.333c46.933 0 85.333-38.4 85.333-85.333s-38.4-85.333-85.333-85.333zM217.854 448v0z" />
<glyph unicode="&#xe92f;" glyph-name="more-vertical" d="M516.523 362.667c-46.933 0-85.333 38.4-85.333 85.333s38.4 85.333 85.333 85.333c46.933 0 85.333-38.4 85.333-85.333s-38.4-85.333-85.333-85.333zM516.523 448v0zM516.523 661.333c-46.933 0-85.333 38.4-85.333 85.333s38.4 85.333 85.333 85.333c46.933 0 85.333-38.4 85.333-85.333s-38.4-85.333-85.333-85.333zM516.523 746.667v0zM516.523 64c-46.933 0-85.333 38.4-85.333 85.333s38.4 85.333 85.333 85.333c46.933 0 85.333-38.4 85.333-85.333s-38.4-85.333-85.333-85.333zM516.523 149.333v0z" />
<glyph unicode="&#xe930;" glyph-name="paly" d="M512-21.333c-260.267 0-469.333 209.067-469.333 469.333s209.067 469.333 469.333 469.333c260.267 0 469.333-209.067 469.333-469.333s-209.067-469.333-469.333-469.333zM512 832c-213.333 0-384-170.667-384-384s170.667-384 384-384c213.333 0 384 170.667 384 384s-170.667 384-384 384zM426.667 234.667c-8.533 0-12.8 0-21.333 4.267-12.8 8.533-21.333 21.333-21.333 38.4v341.334c0 17.067 8.533 29.868 21.333 38.401s29.867 8.533 42.667 0l256-170.669c12.8-8.533 17.067-21.333 17.067-34.133s-8.533-25.6-17.067-34.133l-256-170.667c-4.267-8.533-12.8-12.8-21.333-12.8zM469.333 537.6v-183.467l136.533 89.6-136.533 93.867z" />
<glyph unicode="&#xe931;" glyph-name="pause" d="M516.523-21.333c-260.268 0-469.335 209.067-469.335 469.333s209.067 469.333 469.335 469.333c260.267 0 469.333-209.067 469.333-469.333s-209.067-469.333-469.333-469.333zM516.523 832c-213.335 0-384.002-170.667-384.002-384s170.667-384 384.002-384c213.333 0 384 170.667 384 384s-170.667 384-384 384zM431.189 277.333c-25.602 0-42.668 17.067-42.668 42.667v256c0 25.6 17.067 42.667 42.668 42.667s42.667-17.067 42.667-42.667v-256c0-25.6-17.067-42.667-42.667-42.667zM601.856 277.333c-25.6 0-42.667 17.067-42.667 42.667v256c0 25.6 17.067 42.667 42.667 42.667s42.667-17.067 42.667-42.667v-256c0-25.6-17.067-42.667-42.667-42.667z" />
<glyph unicode="&#xe932;" glyph-name="plus" d="M512-21.333c-260.267 0-469.333 209.067-469.333 469.333s209.067 469.333 469.333 469.333c260.267 0 469.333-209.067 469.333-469.333s-209.067-469.333-469.333-469.333zM512 832c-213.333 0-384-170.667-384-384s170.667-384 384-384c213.333 0 384 170.667 384 384s-170.667 384-384 384zM512 234.667c-25.6 0-42.667 17.067-42.667 42.667v341.333c0 25.6 17.067 42.667 42.667 42.667s42.667-17.067 42.667-42.667v-341.333c0-25.6-17.067-42.667-42.667-42.667zM682.667 405.333h-341.333c-25.6 0-42.667 17.067-42.667 42.667s17.067 42.667 42.667 42.667h341.333c25.6 0 42.667-17.067 42.667-42.667s-17.067-42.667-42.667-42.667z" />
<glyph unicode="&#xe933;" glyph-name="plus-1" d="M512 106.667c-25.6 0-42.667 17.067-42.667 42.667v597.333c0 25.6 17.067 42.667 42.667 42.667s42.667-17.067 42.667-42.667v-597.333c0-25.6-17.067-42.667-42.667-42.667zM810.667 405.333h-597.333c-25.6 0-42.667 17.067-42.667 42.667s17.067 42.667 42.667 42.667h597.333c25.6 0 42.667-17.067 42.667-42.667s-17.067-42.667-42.667-42.667z" />
<glyph unicode="&#xe934;" glyph-name="plus-square" d="M810.667 21.333h-597.333c-72.533 0-128 55.467-128 128v597.333c0 72.533 55.467 128 128 128h597.333c72.533 0 128-55.467 128-128v-597.333c0-72.533-55.467-128-128-128zM213.333 789.333c-25.6 0-42.667-17.067-42.667-42.667v-597.333c0-25.6 17.067-42.667 42.667-42.667h597.333c25.6 0 42.667 17.067 42.667 42.667v597.333c0 25.6-17.067 42.667-42.667 42.667h-597.333zM512 234.667c-25.6 0-42.667 17.067-42.667 42.667v341.333c0 25.6 17.067 42.667 42.667 42.667s42.667-17.067 42.667-42.667v-341.333c0-25.6-17.067-42.667-42.667-42.667zM682.667 405.333h-341.333c-25.6 0-42.667 17.067-42.667 42.667s17.067 42.667 42.667 42.667h341.333c25.6 0 42.667-17.067 42.667-42.667s-17.067-42.667-42.667-42.667z" />
<glyph unicode="&#xe935;" glyph-name="pocket" d="M512 21.333c-64 0-123.734 12.8-179.2 34.133s-106.666 59.733-153.6 102.4c-89.6 89.6-136.533 204.8-136.533 332.8v256c0 34.133 12.8 68.266 38.4 89.599 25.6 25.6 55.467 38.401 89.6 38.401h682.667c34.133 0 68.267-12.801 89.6-38.401 25.6-25.6 38.4-55.466 38.4-89.599v-256c0-123.733-46.933-243.2-136.533-332.8s-204.8-136.533-332.8-136.533zM170.667 789.333c-12.8 0-21.334-4.266-29.867-12.8s-12.8-17.067-12.8-29.867v-256c0-102.4 38.4-200.533 110.933-273.067 34.133-34.133 76.8-64 123.734-85.333s98.133-29.867 145.067-29.867c102.4 0 200.533 38.4 273.067 110.933s110.933 170.667 110.933 273.067v256.001c0 12.8-4.267 21.332-12.8 29.865s-17.067 12.802-29.867 12.802h-678.4v4.266zM512 320c-12.8 0-21.333 4.267-29.867 12.8l-170.667 170.667c-17.067 17.067-17.067 42.667 0 59.733s42.667 17.067 59.734 0l140.8-140.8 140.8 140.8c17.067 17.067 42.667 17.067 59.733 0s17.067-42.667 0-59.733l-170.667-170.667c-8.533-8.533-17.067-12.8-29.867-12.8z" />
<glyph unicode="&#xe936;" glyph-name="rotate-ccw" d="M341.333 490.667h-256c-25.6 0-42.667 17.067-42.667 42.667v256c0 25.6 17.067 42.667 42.667 42.667s42.667-17.067 42.667-42.667v-213.333h213.333c25.6 0 42.667-17.067 42.667-42.667s-17.067-42.667-42.667-42.667zM554.667 21.333c-81.067 0-166.4 25.596-234.667 72.529-76.8 51.2-136.533 128-166.4 213.333-8.533 21.333 4.267 46.938 25.6 55.471s46.933-4.267 55.467-25.6c25.6-68.267 72.533-128 132.267-170.667s136.533-59.733 209.067-55.467c72.533 4.267 145.067 34.133 200.533 81.067s98.133 110.933 110.933 183.467c17.067 72.533 8.533 149.333-21.333 213.335-29.867 68.267-81.067 123.731-145.067 157.865s-140.8 51.201-213.333 38.401c-72.533-8.533-140.8-42.669-192-98.135l-200.533-187.736c-17.067-17.067-42.667-17.067-59.733 0s-17.067 42.669 0 59.736l196.267 187.735c64 64 149.333 106.669 243.2 119.469 89.6 12.8 183.467-4.271 264.533-46.938 81.067-46.933 145.067-115.198 183.467-200.531s46.933-179.204 25.6-268.804c-21.333-89.6-68.267-170.662-140.8-230.396-68.267-59.733-157.867-93.867-251.733-98.133-4.267 0-12.8 0-21.333 0z" />
<glyph unicode="&#xe937;" glyph-name="search" d="M473.856 106.667c-213.335 0-384.002 170.667-384.002 384s170.667 384 384.002 384c213.333 0 384-170.667 384-384s-170.667-384-384-384zM473.856 789.333c-166.402 0-298.668-132.267-298.668-298.667s132.267-298.667 298.668-298.667c166.4 0 298.667 132.267 298.667 298.667s-132.267 298.667-298.667 298.667zM900.527 21.333c-12.8 0-21.338 4.271-29.871 12.804l-187.729 183.462c-17.067 17.067-17.067 42.667 0 59.733s42.662 17.067 59.729 0l187.733-183.467c17.067-17.067 17.067-42.662 0-59.729-8.533-8.533-17.062-12.804-29.862-12.804z" />
<glyph unicode="&#xe938;" glyph-name="send" d="M465.062 362.667c-12.8 0-21.333 4.271-29.867 12.804-17.067 17.067-17.067 42.662 0 59.729l469.333 469.333c17.067 17.067 42.667 17.067 59.733 0s17.067-42.662 0-59.729l-469.333-469.333c-8.533-8.533-17.067-12.804-29.867-12.804zM635.733-21.333c-17.067 0-34.133 8.529-38.4 25.596l-162.133 366.933-366.934 162.138c-17.067 8.532-25.599 21.332-25.599 42.665 0 17.067 12.799 34.134 29.866 38.401l853.334 298.667c17.067 4.267 34.133-0.003 42.667-8.536 12.8-12.8 17.067-29.867 8.533-42.667l-298.667-853.334c-8.533-17.067-21.333-29.862-42.667-29.862 4.267 0 0 0 0 0zM196.266 571.733l285.868-128c8.533-4.267 17.067-12.8 21.333-21.333l128-285.871 234.667 669.871-669.868-234.667z" />
<glyph unicode="&#xe939;" glyph-name="settings" d="M495.841 303.62c-90.113 0-163.841 73.728-163.841 163.84s73.728 163.84 163.841 163.84c90.112 0 163.84-73.728 163.84-163.84s-73.728-163.84-163.84-163.84zM495.841 549.38c-45.056 0-81.92-36.864-81.92-81.92s36.864-81.92 81.92-81.92c45.056 0 81.92 36.864 81.92 81.92s-36.864 81.92-81.92 81.92zM499.945-24.064c-32.768 0-65.536 12.292-86.016 36.868-24.577 20.48-36.864 53.244-36.864 86.012 0 8.192 0 12.292-4.096 16.388s-8.193 8.188-12.289 8.188c-8.192 4.096-12.288 4.096-16.384 4.096s-12.288-4.096-12.288-8.192c-12.288-12.288-24.576-20.476-40.96-28.668-32.768-12.288-61.441-12.288-94.209 0-16.384 8.192-28.672 16.38-40.96 28.668s-20.479 24.576-24.575 40.96c-8.192 16.384-8.192 32.768-8.192 45.056 0 16.384 4.096 32.772 8.192 49.156 8.192 16.384 16.383 28.672 24.575 40.96 4.096 8.192 8.193 12.284 8.193 16.38s0 12.288 0 16.384c-4.096 4.096-4.097 8.196-8.193 12.292s-8.191 4.092-12.287 4.092h-8.193c-32.768 0-65.535 12.292-86.015 36.868-24.576 20.48-36.865 53.244-36.865 86.012s12.289 65.536 36.865 86.017c24.576 24.576 53.247 36.865 86.015 36.865 8.192 0 12.289-0.001 16.385 4.095s8.191 8.194 8.191 12.29c4.096 8.192 4.096 12.289 4.096 16.385s-4.097 8.189-8.193 12.285c-12.288 12.288-20.479 28.672-28.671 40.96-8.192 16.384-8.192 32.771-8.192 49.155s4.096 32.767 8.192 45.055c8.192 16.384 16.384 28.672 24.576 40.96 12.288 12.288 24.576 20.478 40.96 28.67 28.672 12.288 61.44 12.288 94.208 0 16.384-8.192 28.672-16.382 40.96-28.67 4.096-4.096 8.192-8.195 16.384-8.195s12.288 0 16.384 0c4.096 0 4.097 0.004 8.193 4.1 4.096 0 4.096 4.094 8.192 8.19s4.095 8.193 4.095 16.385v8.19c0 32.768 12.289 65.535 36.866 86.015 45.056 45.056 126.976 45.056 172.032 0 24.576-20.48 36.864-53.247 36.864-86.015 0-8.192 0-12.289 4.096-16.385s8.192-8.189 12.288-12.285c4.096-4.096 12.288-4.096 16.384 0 4.096 0 8.192 4.094 12.288 8.19 12.288 12.288 24.576 20.483 40.96 28.675 32.768 12.288 61.44 12.288 94.208 0 16.384-8.192 28.672-16.387 40.96-28.675s20.48-24.576 24.576-40.96c8.192-16.384 8.192-32.767 8.192-45.055 0-16.384-4.096-32.766-8.192-49.15s-16.384-28.672-24.576-40.96l-4.096-4.1c-4.096-4.096-4.096-8.189-8.192-12.285 0-4.096 0-12.289 0-16.385s4.096-4.094 4.096-8.19c0-4.096 4.096-4.099 8.192-8.195s8.192-4.095 12.288-4.095h8.192c32.768 0 65.536-12.289 86.016-36.865 24.576-20.481 36.864-53.249 36.864-86.017s-12.288-65.532-36.864-86.012c-20.48-24.576-53.248-36.868-86.016-36.868-8.192 0-12.288 0.004-20.48-4.092-4.096-4.096-8.192-8.196-8.192-12.292-4.096-4.096-4.096-12.288 0-16.384 0-4.096 4.096-12.284 8.192-16.38 12.288-12.288 20.48-28.672 28.672-40.96 8.192-16.384 8.192-28.676 8.192-49.156 0-16.384-4.096-32.764-8.192-49.148s-16.384-28.672-24.576-40.96c-12.288-12.288-24.576-20.484-40.96-28.676-32.768-12.288-61.44-12.288-94.208 0-16.384 8.192-28.672 16.388-40.96 28.676-4.096 4.096-8.192 8.188-16.384 8.188s-12.288 0-16.384 0c-4.096-4.096-8.192-4.092-12.288-8.188s-4.096-8.196-4.096-16.388v-8.188c0-32.768-12.288-65.54-36.864-86.020-24.576-16.384-57.344-28.672-90.112-28.672zM348.393 209.408c16.384 0 28.672-4.096 45.056-8.192 16.385-8.192 36.865-20.48 49.153-36.864s20.48-36.864 20.48-61.44v-4.096c0-12.288 4.096-20.476 12.288-28.668 16.384-16.384 40.96-16.384 57.344 0 8.192 8.192 12.288 16.38 12.288 28.668v8.192c0 20.48 8.192 40.96 16.384 61.44 12.288 16.384 28.672 32.768 49.152 40.96s40.96 12.292 61.44 8.196c20.48-4.096 40.96-12.292 57.344-28.676l4.096-4.096c4.096-4.096 8.192-8.188 12.288-8.188 12.288-4.096 20.48-4.096 32.768 0 4.096 4.096 8.192 4.092 12.288 8.188s8.192 8.196 8.192 12.292c4.096 4.096 4.096 8.192 4.096 16.384 0 4.096 0 12.284-4.096 16.38s-4.096 8.192-8.192 12.288c-16.384 16.384-28.672 36.868-32.768 57.348s0 45.056 8.192 61.44c8.192 20.48 20.48 36.86 40.96 49.148s40.96 16.384 61.44 16.384c16.384 0 24.576 4.1 32.768 12.292s12.288 16.38 12.288 28.668c0 12.288-4.096 20.48-12.288 28.672s-16.384 12.288-28.672 12.288h-12.288c-20.48 0-40.96 4.1-57.344 16.388-20.48 12.288-32.768 28.669-40.96 49.149 0 4.096-4.096 8.194-4.096 12.29-8.192 16.384-8.192 36.865-4.096 57.345s12.288 40.956 28.672 57.34l4.096 4.1c4.096 4.096 8.192 8.189 8.192 12.285 4.096 4.096 4.096 8.193 4.096 16.385 0 4.096 0 12.289-4.096 16.385s-4.096 8.189-8.192 12.285c-4.096 4.096-8.192 8.195-12.288 8.195-12.288 4.096-20.48 4.096-32.768 0-4.096-4.096-8.192-4.099-12.288-8.195l-4.096-4.095c-16.384-16.384-36.864-24.574-57.344-28.67s-40.96-0.002-61.44 8.19c-20.48 8.192-36.864 20.48-49.152 40.96-12.288 16.384-16.384 36.864-16.384 61.44 0 16.384-4.096 24.578-12.288 32.77-16.384 16.384-40.96 16.384-57.344 0-8.192-8.192-12.288-16.387-12.288-28.675v-8.19c0-20.48-8.192-40.96-16.384-61.44-12.288-16.384-28.672-32.768-49.153-40.96-4.096 0-8.193-4.095-12.289-4.095-16.384-8.192-36.863-8.191-53.247-4.095-20.48 4.096-40.96 12.286-57.344 28.67l-4.096 4.095c-4.096 4.096-8.192 8.195-12.288 8.195-12.288 4.096-20.481 4.096-32.769 0-4.096-4.096-8.192-4.099-12.288-8.195s-8.192-8.189-8.192-12.285c0-4.096-4.096-8.193-4.096-16.385 0-4.096 0-12.289 4.096-16.385s4.096-8.194 8.192-12.29c16.384-16.384 28.672-36.86 32.768-57.34s0.001-45.056-8.191-61.44c-8.192-16.384-20.481-36.868-36.865-49.156s-36.864-20.48-61.44-20.48h-4.095c-12.288 0-20.48-4.092-28.672-12.284s-12.288-16.388-12.288-28.676c0-12.288 4.096-20.476 12.288-28.668s16.384-12.292 28.672-12.292h8.191c20.48 0 40.96-4.096 57.344-16.384 20.48-12.288 32.768-28.672 40.96-49.152s12.289-40.96 8.193-61.44c-4.096-20.48-12.289-40.96-28.673-57.344l-4.095-4.096c-4.096-4.096-8.192-8.192-8.192-12.288s-4.096-8.188-4.096-16.38c0-4.096 0-12.288 4.096-16.384s4.096-8.196 8.192-12.292c4.096-4.096 8.192-8.188 12.288-8.188 12.288-4.096 20.479-4.096 32.767 0 4.096 4.096 8.193 4.092 12.289 8.188l4.096 4.096c16.384 16.384 36.864 24.58 57.344 28.676 4.096-8.192 8.192-8.196 16.384-8.196z" />
<glyph unicode="&#xe93a;" glyph-name="stop" d="M512-21.333c-260.267 0-469.333 209.067-469.333 469.333s209.067 469.333 469.333 469.333c260.267 0 469.333-209.067 469.333-469.333s-209.067-469.333-469.333-469.333zM512 832c-213.333 0-384-170.667-384-384s170.667-384 384-384c213.333 0 384 170.667 384 384s-170.667 384-384 384zM640 277.333h-256c-25.6 0-42.667 17.067-42.667 42.667v256c0 25.6 17.067 42.667 42.667 42.667h256c25.6 0 42.667-17.067 42.667-42.667v-256c0-25.6-17.067-42.667-42.667-42.667zM426.667 362.667h170.667v170.667h-170.667v-170.667z" />
<glyph unicode="&#xe93b;" glyph-name="trash-2" d="M900.523 661.333h-768.002c-25.6 0-42.667 17.067-42.667 42.667s17.067 42.667 42.667 42.667h768.002c25.6 0 42.667-17.067 42.667-42.667s-17.067-42.667-42.667-42.667zM729.856-21.333h-426.668c-34.133 0-68.267 12.8-89.6 38.4-25.6 21.333-38.4 55.467-38.4 89.6v597.333c0 25.6 17.067 42.667 42.667 42.667h85.333v42.667c0 34.133 12.8 68.266 38.4 89.599 25.6 25.6 55.467 38.401 89.602 38.401h170.667c34.133 0 68.267-12.801 89.6-38.401 25.6-21.333 38.4-55.466 38.4-89.599v-42.667h85.333c25.6 0 42.667-17.067 42.667-42.667v-597.333c0-34.133-12.8-68.267-38.4-89.6-21.333-25.6-55.467-38.4-89.6-38.4zM260.521 661.333v-554.667c0-12.8 4.267-21.333 12.8-29.867s17.067-12.8 29.867-12.8h426.668c12.8 0 21.333 4.267 29.867 12.8s12.8 17.067 12.8 29.867v554.667h-512.002zM388.521 746.667h256.002v42.667c0 12.8-4.267 21.331-12.8 29.865s-17.067 12.802-29.867 12.802h-170.667c-12.802 0-21.335-4.269-29.868-12.802s-12.8-17.065-12.8-29.865v-42.667zM431.189 192c-25.602 0-42.668 17.067-42.668 42.667v256c0 25.6 17.067 42.667 42.668 42.667s42.667-17.067 42.667-42.667v-256c0-25.6-17.067-42.667-42.667-42.667zM601.856 192c-25.6 0-42.667 17.067-42.667 42.667v256c0 25.6 17.067 42.667 42.667 42.667s42.667-17.067 42.667-42.667v-256c0-25.6-17.067-42.667-42.667-42.667z" />
<glyph unicode="&#xe93c;" glyph-name="unlock" d="M815.189-21.333h-597.335c-72.533 0-128 55.467-128 128v298.667c0 72.533 55.467 128 128 128h597.335c72.533 0 128-55.467 128-128v-298.667c0-72.533-55.467-128-128-128zM217.854 448c-25.6 0-42.667-17.067-42.667-42.667v-298.667c0-25.6 17.067-42.667 42.667-42.667h597.335c25.6 0 42.667 17.067 42.667 42.667v298.667c0 25.6-17.067 42.667-42.667 42.667h-597.335zM303.188 448c-25.6 0-42.667 17.067-42.667 42.667v170.668c0 64 21.333 123.733 64 170.667s102.402 76.801 166.402 81.068c64 4.267 127.996-12.799 179.196-46.932 51.2-38.4 85.338-93.871 98.138-153.604 4.267-21.333-8.538-46.932-34.138-51.198-21.333-4.267-46.929 8.535-51.196 34.135-8.533 42.667-29.867 76.796-64 102.396s-76.804 38.402-119.471 34.135c-42.667-4.267-81.064-25.602-110.931-55.468s-42.667-72.532-42.667-115.198v-170.668c0-25.6-17.067-42.667-42.667-42.667z" />
<glyph unicode="&#xe93d;" glyph-name="upload" d="M497.331 17.877c-24.636 0-41.062 17.135-41.062 42.837v385.562c0 25.707 16.427 42.842 41.062 42.842s41.058-17.135 41.058-42.842v-385.562c0-25.702-16.422-42.837-41.058-42.837zM842.24 129.259c-16.427 0-28.745 8.567-36.954 21.419-12.318 21.419-4.109 47.125 16.422 59.977 32.849 17.139 57.485 47.125 73.907 81.399 16.427 34.27 16.422 72.828 8.213 111.381-8.213 38.558-28.74 68.544-57.485 94.246-28.74 21.423-65.694 34.274-98.543 34.274h-53.376c-20.531 0-36.958 12.852-41.062 29.988-12.318 42.84-32.849 85.683-57.485 119.955-28.74 34.272-61.589 59.977-102.647 81.398-41.058 17.136-82.12 25.703-127.286 25.703s-86.225-12.854-123.179-34.274c-36.954-21.42-73.908-51.408-98.543-85.681s-41.059-77.108-49.271-124.233c-8.212-42.842-4.107-89.968 4.105-132.809 12.318-42.842 32.848-85.679 61.59-119.949 16.424-17.135 12.318-42.842-4.105-59.977-16.424-17.139-41.060-12.855-57.484 4.279-36.954 42.842-65.695 94.251-78.013 149.943-16.424 55.693-16.424 115.669-8.212 171.361s32.847 111.388 65.695 158.512c32.848 47.124 73.908 85.679 123.18 111.383s102.65 42.84 160.134 42.84c53.378 4.284 110.86-8.57 164.24-34.274 49.271-21.42 98.543-59.978 131.392-102.818 28.74-34.272 53.376-77.11 65.694-119.95h20.531c53.376 0 106.752-17.138 151.919-55.694 45.167-34.273 73.907-85.678 86.225-141.37s8.213-115.669-12.318-167.078c-20.527-51.409-61.589-94.251-106.756-124.237-8.209 4.284-12.318 4.284-20.527 4.284zM661.559 232.077c-12.318 0-20.531 4.288-28.745 12.855l-135.497 141.372-135.496-141.372c-16.424-17.135-41.060-17.135-57.484 0s-16.424 42.837 0 59.972l164.239 171.362c16.422 17.135 41.058 17.135 57.485 0l164.237-171.362c16.427-17.135 16.427-42.837 0-59.972-8.209-8.567-16.422-12.855-28.74-12.855z" />
<glyph unicode="&#xe93e;" glyph-name="user" d="M857.856 21.333c-25.6 0-42.667 17.067-42.667 42.667v85.333c0 34.133-12.8 68.267-38.4 89.6-25.6 25.6-55.467 38.4-89.6 38.4h-341.335c-34.133 0-68.267-12.8-89.6-38.4-25.6-25.6-38.4-55.467-38.4-89.6v-85.333c0-25.6-17.067-42.667-42.667-42.667s-42.667 17.067-42.667 42.667v85.333c0 55.467 21.333 110.933 64 149.333 38.4 38.4 93.867 64 149.333 64h341.335c55.467 0 110.933-21.333 149.333-64 38.4-38.4 64-93.867 64-149.333v-85.333c0-25.6-17.067-42.667-42.667-42.667zM516.523 448c-119.468 0-213.335 93.867-213.335 213.333s93.867 213.333 213.335 213.333c119.467 0 213.333-93.867 213.333-213.333s-93.867-213.333-213.333-213.333zM516.523 789.333c-72.533 0-128.002-55.467-128.002-128s55.468-128 128.002-128c72.533 0 128 55.467 128 128s-55.467 128-128 128z" />
<glyph unicode="&#xe93f;" glyph-name="email" d="M880 739.765c-65.818 82.929-157.743 141.168-260.838 165.257s-211.307 12.613-307.057-32.564c-71.633-33.721-133.571-85.015-180.050-149.109s-75.989-138.904-85.783-217.468c-9.794-78.566 0.446-158.332 29.768-231.876 29.321-73.54 76.771-138.47 137.932-188.749 82.059-67.004 184.214-104.559 290.135-106.667h8.533c103.206 0.026 203.529 34.065 285.44 96.853 8.994 6.903 14.878 17.097 16.358 28.339s-1.566 22.613-8.465 31.607c-6.903 8.998-17.097 14.882-28.339 16.363s-22.613-1.566-31.607-8.469c-68.834-52.676-153.463-80.521-240.124-79.002-86.665 1.519-170.265 32.316-237.205 87.377-66.94 55.066-113.283 131.153-131.491 215.898-18.208 84.74-7.211 173.152 31.204 250.852s101.986 140.117 180.376 177.102c78.392 36.985 166.985 46.361 251.384 26.604 84.395-19.758 159.62-67.486 213.449-135.424s83.085-152.087 83.021-238.767v-42.667c0-22.63-8.994-44.335-24.994-60.339-16.004-16-37.709-24.994-60.339-24.994-22.635 0-44.339 8.994-60.343 24.994-16 16.004-24.99 37.709-24.99 60.339v213.335c0 11.316-4.497 22.168-12.497 30.17-8.004 8.001-18.854 12.497-30.17 12.497-11.319 0-22.17-4.495-30.17-12.497-8.004-8.002-12.497-18.854-12.497-30.17-33.067 25.21-72.777 40.209-114.249 43.153s-82.901-6.296-119.196-26.583c-36.293-20.287-65.866-50.737-85.084-87.607-19.218-36.868-27.244-78.554-23.089-119.923s20.306-80.623 46.471-112.934c26.165-32.316 61.202-56.277 100.804-68.945 39.603-12.663 82.039-13.483 122.103-2.351 40.060 11.132 75.994 33.724 103.386 65.003 5.521-8.252 11.806-15.962 18.773-23.040 32.538-31.036 75.776-48.354 120.747-48.354 44.966 0 88.209 17.318 120.747 48.354 31.787 31.825 49.728 74.914 49.92 119.893v42.667c-0.226 105.978-36.151 208.788-101.973 291.842zM512.64 319.923c-25.318 0-50.065 7.509-71.117 21.572-21.047 14.067-37.454 34.057-47.142 57.446s-12.223 49.126-7.284 73.954c4.939 24.832 17.13 47.637 35.031 65.539s40.707 30.092 65.539 35.031c24.828 4.939 50.564 2.404 73.954-7.284s43.379-26.094 57.446-47.142c14.063-21.052 21.572-45.798 21.572-71.117 0-33.946-13.487-66.505-37.491-90.509s-56.563-37.491-90.509-37.491v0z" />
<glyph unicode="&#xe940;" glyph-name="home2" d="M922.027 609.809l-384 298.667c-7.462 5.743-16.61 8.858-26.027 8.858s-18.564-3.114-26.027-8.858l-384-298.667c-5.163-3.975-9.348-9.079-12.232-14.922s-4.392-12.269-4.408-18.785v-469.333c0-33.946 13.486-66.505 37.49-90.509s56.562-37.491 90.51-37.491h597.333c33.946 0 66.505 13.487 90.509 37.491s37.491 56.563 37.491 90.509v469.333c-0.017 6.516-1.523 12.942-4.407 18.785s-7.070 10.947-12.233 14.922v0zM597.333 64.102h-170.667v341.333h170.667v-341.333zM853.333 106.769c0-11.315-4.497-22.17-12.497-30.17s-18.854-12.497-30.17-12.497h-128v384c0 11.315-4.497 22.17-12.497 30.17s-18.854 12.497-30.17 12.497h-256c-11.316 0-22.168-4.497-30.17-12.497s-12.497-18.854-12.497-30.17v-384h-128c-11.297 0.158-22.117 4.578-30.293 12.373-7.796 8.175-12.216 18.995-12.373 30.293v448.427l341.333 265.387 341.333-265.387v-448.427z" />
</font>
</defs>
</svg>
